<svg xmlns="http://www.w3.org/2000/svg" xmlns:xlink="http://www.w3.org/1999/xlink" id="Ebene_1" x="0px" y="0px" width="350px" height="130.333px" viewBox="0 0 350 130.333" xml:space="preserve"> <rect x="6.114" y="94.284" fill="#9B9C9E" width="23.252" height="1.17"></rect> <rect x="57.479" y="94.284" fill="#9B9C9E" width="291.521" height="1.17"></rect> <g> <path fill="#1A171B" d="M123.815,44.347c-3.098-1.859-7.824-2.789-11.155-2.789c-10.146,0-17.738,6.74-17.738,17.041 c0,9.683,6.042,17.351,16.189,17.351c5.499,0,7.746-1.393,12.005-2.787l4.106,9.991c-3.795,2.093-9.993,3.95-17.738,3.95 c-18.049,0-28.97-11.463-28.97-28.814c0-16.731,11.231-27.886,30.75-27.886c7.281,0,13.246,1.627,16.809,3.873L123.815,44.347z"></path> <polygon fill="#1A171B" points="139.385,31.953 176.41,31.953 176.41,43.107 153.406,43.107 153.25,53.41 176.18,53.41 176.18,64.099 153.173,64.099 153.018,74.4 175.947,74.4 175.947,85.555 138.92,85.555 "></polygon> <path fill="#1A171B" d="M207.456,85.555h-14.099l0.465-53.602h21.07c11.154,0,20.524,2.944,20.524,15.104 c0.233,7.669-5.188,13.556-12.858,13.865v0.155c3.101,0.929,5.424,4.261,7.359,7.746l9.374,16.731h-15.726l-7.668-14.872 c-1.629-3.254-2.943-5.578-6.043-5.578h-2.092L207.456,85.555z M207.225,54.881h6.272c3.331,0,7.979-0.93,7.979-6.352 c0-4.414-2.713-6.351-8.289-6.351h-5.654L207.225,54.881z"></path> <polygon fill="#1A171B" points="252.719,31.953 289.745,31.953 289.745,43.107 266.738,43.107 266.585,53.41 289.514,53.41 289.514,64.099 266.509,64.099 266.354,74.4 289.281,74.4 289.281,85.555 252.255,85.555 "></polygon> <path fill="#1A171B" d="M308.477,73.625c3.252,1.008,8.599,2.324,12.393,2.324c4.338,0,8.908-0.854,8.908-5.887 c0-4.959-6.273-5.422-12.549-7.283c-6.274-1.858-12.627-5.111-12.627-15.49c0-11.541,11.619-16.887,21.768-16.887 c5.965,0,11.541,1.395,17.041,3.486l-3.95,9.914c-3.563-1.316-8.442-2.245-11.31-2.245c-6.66,0-9.141,2.401-9.141,5.809 c0,2.168,1.551,4.028,7.746,5.345c13.71,3.099,17.428,8.598,17.428,16.111c0,13.246-10.611,18.28-22.541,18.28 c-5.576,0-11.386-1.238-16.652-3.021L308.477,73.625z"></path> <g> <path fill="#009B4E" d="M43.208,127.983c-0.285-3.346-0.391-6.716-0.891-10.025c-1.164-7.711-2.16-15.472-3.868-23.067 c-3.276-14.556-9.75-27.731-18.624-39.697c-4.474-6.031-9.29-11.807-13.808-17.807c-2.28-3.028-4.262-6.242-4.375-10.297 c-0.083-3.021,0.795-5.629,2.468-8.053C7.467,14.171,19.923,4.312,25.85,1.933c-2.179,2.841-4.31,5.411-6.196,8.15 c-1.367,1.988-2.485,4.163-3.584,6.318c-2.249,4.413-1.293,8.416,2.051,11.788c2.867,2.891,5.975,5.543,9.034,8.238 c5.848,5.15,10.79,11.036,14.669,17.802c0.342,0.595,0.775,1.138,1.217,1.775c2.14-3.464,4.002-6.877,6.238-10.024 c7.396-10.41,17.139-18.194,28.15-24.445c10.491-5.956,21.67-10.177,33.379-13.127c10.043-2.53,20.219-4.042,30.514-4.909 c0.772-0.065,1.558-0.009,2.353,0.095c-12.349,2.511-24.497,5.578-35.946,11.013c-20.25,9.616-35.253,24.574-45.654,44.325 C55.77,70.907,51.466,83.616,48.547,96.763c-1.764,7.952-2.813,16.063-4.155,24.106c-0.387,2.326-0.674,4.67-1.008,7.004 C43.325,127.913,43.267,127.947,43.208,127.983"></path> <path fill="#009B4E" d="M21.33,24.616c9.448-4.984,15.272-13.174,21.663-21.231c5.357,8.895,11.922,16.083,20.879,21.336 c-8.526,6.025-15.629,12.846-20.733,22.359C37.829,37.738,30.064,31.198,21.33,24.616"></path> </g> </g> </svg>